<svg xmlns="http://www.w3.org/2000/svg" viewBox="0 0 320 660" font-family="Inter, system-ui, sans-serif">
  <rect x="8" y="8" width="304" height="644" rx="38" fill="#F4F1EA" stroke="#DAD5C9" stroke-width="2"/>
  <text x="160" y="110" font-size="11" letter-spacing="3" fill="#7A766E" text-anchor="middle" font-weight="600">SCROLLING — YOUTUBE</text>
  <text x="160" y="136" font-size="15" fill="#7A766E" text-anchor="middle" font-style="italic" font-family="Georgia, serif">The glass is draining.</text>

  <g transform="translate(112,180)" fill="#1B1A18" stroke="#1B1A18">
    <svg width="96" height="154" viewBox="0 0 200 320" overflow="visible">
      <clipPath id="at"><path d="M48 48 L152 48 L100 158 Z"/></clipPath>
      <clipPath id="ab"><path d="M100 162 L48 272 L152 272 Z"/></clipPath>
      <g clip-path="url(#at)"><rect x="44" y="130" width="112" height="32" fill="#1B1A18" fill-opacity="0.88" stroke="none"/></g>
      <g clip-path="url(#ab)"><rect x="44" y="191" width="112" height="83" fill="#1B1A18" fill-opacity="0.88" stroke="none"/><ellipse cx="100" cy="191" rx="36" ry="5" fill="#1B1A18" fill-opacity="0.88" stroke="none"/></g>
      <line x1="100" y1="150" x2="100" y2="174" stroke-width="2" stroke-linecap="round"/>
      <path d="M48 48 L152 48 L100 158 Z" fill="none" stroke-width="2.5" stroke-linejoin="round"/>
      <path d="M100 162 L48 272 L152 272 Z" fill="none" stroke-width="2.5" stroke-linejoin="round"/>
      <line x1="40" y1="44" x2="160" y2="44" stroke-width="5" stroke-linecap="round"/>
      <line x1="40" y1="276" x2="160" y2="276" stroke-width="5" stroke-linecap="round"/>
    </svg>
  </g>

  <text x="160" y="430" font-size="48" fill="#1B1A18" text-anchor="middle" font-family="Georgia, serif">30:42</text>
  <text x="160" y="462" font-size="11" letter-spacing="2" fill="#7A766E" text-anchor="middle" font-weight="600">31 MIN LEFT</text>

  <rect x="40" y="520" width="240" height="50" rx="25" fill="none" stroke="#1B1A18" stroke-width="2"/>
  <text x="160" y="551" font-size="14" fill="#1B1A18" text-anchor="middle" font-weight="600">Stop</text>
</svg>
