<svg xmlns="http://www.w3.org/2000/svg" viewBox="0 0 320 660" font-family="Inter, system-ui, sans-serif">
  <rect x="8" y="8" width="304" height="644" rx="38" fill="#F4F1EA" stroke="#DAD5C9" stroke-width="2"/>
  <text x="40" y="78" font-size="11" letter-spacing="2" fill="#7A766E" font-weight="600">GOOD TO SEE YOU</text>
  <text x="40" y="104" font-size="28" fill="#1B1A18" font-family="Georgia, 'Times New Roman', serif">Jahnavi</text>
  <text x="280" y="80" font-size="12" fill="#7A766E" text-anchor="end" text-decoration="underline">Sign out</text>

  <g transform="translate(110,150)" fill="#1B1A18" stroke="#1B1A18">
    <svg width="100" height="160" viewBox="0 0 200 320" overflow="visible">
      <clipPath id="ht"><path d="M48 48 L152 48 L100 158 Z"/></clipPath>
      <clipPath id="hb"><path d="M100 162 L48 272 L152 272 Z"/></clipPath>
      <g clip-path="url(#ht)"><rect x="44" y="128" width="112" height="34" fill="#1B1A18" fill-opacity="0.88" stroke="none"/></g>
      <g clip-path="url(#hb)"><rect x="44" y="189" width="112" height="85" fill="#1B1A18" fill-opacity="0.88" stroke="none"/><ellipse cx="100" cy="189" rx="37" ry="5" fill="#1B1A18" fill-opacity="0.88" stroke="none"/></g>
      <path d="M48 48 L152 48 L100 158 Z" fill="none" stroke-width="2.5" stroke-linejoin="round"/>
      <path d="M100 162 L48 272 L152 272 Z" fill="none" stroke-width="2.5" stroke-linejoin="round"/>
      <line x1="40" y1="44" x2="160" y2="44" stroke-width="5" stroke-linecap="round"/>
      <line x1="40" y1="276" x2="160" y2="276" stroke-width="5" stroke-linecap="round"/>
    </svg>
  </g>

  <text x="160" y="370" font-size="44" fill="#1B1A18" text-anchor="middle" font-family="Georgia, serif">32<tspan font-size="14" fill="#7A766E" font-family="Inter, sans-serif"> min</tspan></text>
  <text x="160" y="398" font-size="15" fill="#7A766E" text-anchor="middle" font-style="italic" font-family="Georgia, serif">A little set aside.</text>

  <rect x="40" y="486" width="240" height="50" rx="25" fill="#1B1A18"/>
  <text x="160" y="517" font-size="14" fill="#F4F1EA" text-anchor="middle" font-weight="600">Start focus session</text>
  <rect x="40" y="546" width="240" height="50" rx="25" fill="none" stroke="#1B1A18" stroke-width="1.5"/>
  <text x="160" y="577" font-size="14" fill="#1B1A18" text-anchor="middle" font-weight="600">Start scrolling</text>

  <line x1="8" y1="616" x2="312" y2="616" stroke="#DAD5C9" stroke-width="1.5"/>
  <text x="80"  y="640" font-size="11" letter-spacing="1.5" fill="#1B1A18" text-anchor="middle" font-weight="600">HOME</text>
  <text x="160" y="640" font-size="11" letter-spacing="1.5" fill="#7A766E" text-anchor="middle" font-weight="600">FRIENDS</text>
  <text x="240" y="640" font-size="11" letter-spacing="1.5" fill="#7A766E" text-anchor="middle" font-weight="600">LEDGER</text>
</svg>
